<svg xmlns="http://www.w3.org/2000/svg" viewBox="0 0 24 24" fill="currentColor">
  <rect x="2" y="4" width="20" height="16" rx="2" fill="none" stroke="currentColor" stroke-width="2"/>
  <path d="M6 8h2.5l2 6h-1.5l-0.4-1.2H6.4L6 14H4.5l2-6zm0.8 3.8h1.4L7.5 10.2l-0.7 1.6z" fill="currentColor"/>
  <path d="M13 14V8h2c1.1 0 2 0.9 2 2v0c0 0.6-0.3 1.1-0.7 1.4C16.7 11.6 17 12.1 17 12.7v0c0 1.1-0.9 2-2 2h-2zm1.5-3.2h0.5c0.3 0 0.5-0.2 0.5-0.5v0c0-0.3-0.2-0.5-0.5-0.5h-0.5v1zm0 2.2h0.7c0.3 0 0.5-0.2 0.5-0.5v0c0-0.3-0.2-0.5-0.5-0.5h-0.7v1z" fill="currentColor"/>
  <circle cx="19" cy="7" r="2" fill="#10b981"/>
  <path d="M18 7l0.5 0.5L20 6" stroke="white" stroke-width="1.5" fill="none" stroke-linecap="round" stroke-linejoin="round"/>
</svg>